<?xml version="1.0" standalone="no"?>
<!DOCTYPE svg PUBLIC "-//W3C//DTD SVG 20010904//EN"
 "http://www.w3.org/TR/2001/REC-SVG-20010904/DTD/svg10.dtd">
<svg version="1.0" xmlns="http://www.w3.org/2000/svg"
 width="125.000000pt" height="125.000000pt" viewBox="0 0 125.000000 125.000000"
 preserveAspectRatio="xMidYMid meet">
<metadata>
Created by potrace 1.11, written by Peter Selinger 2001-2013
</metadata>
<g transform="translate(0.000000,125.000000) scale(0.100000,-0.100000)"
fill="#000000" stroke="none">
<path d="M805 1195 c20 -15 19 -16 -3 -21 -22 -6 -32 -44 -12 -44 6 0 10 -13
10 -30 0 -16 5 -30 10 -30 6 0 10 11 10 24 0 14 4 27 8 30 5 3 8 -14 8 -37 -1
-32 3 -42 17 -45 32 -6 60 28 54 65 -7 42 3 42 33 1 57 -76 74 -128 83 -253 3
-27 3 -35 0 -17 -5 35 -19 43 -26 15 -3 -10 -5 3 -6 29 -1 44 -3 47 -33 53
-24 6 -35 3 -46 -11 -13 -18 -14 -17 -7 11 5 24 4 28 -6 18 -18 -18 -34 -16
-19 2 7 8 8 15 2 15 -19 0 -33 -28 -35 -69 -1 -23 -2 -41 -3 -41 -13 0 -52 29
-46 35 4 4 -6 5 -23 2 l-30 -5 24 20 c20 15 24 27 23 58 -2 22 3 48 10 59 14
23 6 36 -17 28 -11 -5 -15 -21 -15 -66 l0 -59 -52 -27 c-35 -18 -60 -25 -79
-21 -16 3 -31 1 -35 -5 -4 -8 -9 -7 -15 2 -6 9 -11 11 -16 4 -5 -6 -28 -23
-53 -37 -25 -14 -68 -51 -96 -82 -44 -47 -57 -56 -86 -56 -19 0 -39 -5 -45
-11 -6 -6 -26 -12 -44 -15 -55 -8 -61 -12 -50 -31 5 -10 37 -29 70 -43 71 -29
74 -39 39 -137 -17 -49 -19 -68 -11 -85 27 -58 33 -83 33 -133 0 -60 6 -67 65
-75 l40 -5 3 -77 c2 -68 5 -78 21 -78 25 0 31 19 31 91 0 52 3 60 23 68 44 17
118 31 162 31 43 0 45 -1 45 -28 0 -26 -3 -28 -42 -30 -58 -4 -113 -19 -127
-36 -7 -8 -11 -36 -9 -63 l3 -48 57 -3 c33 -2 81 3 112 12 l55 16 -4 107 c-3
71 -8 109 -17 114 -21 13 -1 22 52 24 37 1 55 7 65 21 20 27 19 30 -15 44 -37
15 -42 23 -47 67 -2 24 8 58 36 117 22 46 41 92 43 102 2 10 6 21 10 24 12 10
14 165 2 163 -7 -1 -9 8 -6 22 2 14 11 25 18 25 8 0 14 5 14 10 0 6 4 10 8 10
5 0 13 -23 18 -52 10 -55 28 -73 39 -39 8 26 25 27 25 2 0 -19 26 -48 35 -39
7 7 9 114 2 124 -3 5 -8 35 -11 66 -12 112 -105 248 -160 234 -14 -3 -26 -2
-26 3 0 5 -8 11 -17 15 -10 3 -25 9 -33 12 -8 3 -6 -2 5 -11z m-80 -345 c3 -5
18 -7 33 -4 25 4 30 -1 61 -57 27 -51 33 -72 32 -119 0 -56 -21 -128 -46 -160
-35 -46 -40 -131 -10 -177 20 -29 19 -33 -5 -33 -34 0 -80 29 -90 56 -6 14
-10 52 -10 85 0 33 -5 69 -11 80 -17 33 -19 61 -8 102 14 53 -3 73 -55 63 -30
-6 -38 -12 -42 -35 -6 -27 -9 -28 -62 -30 -31 0 -60 -5 -66 -11 -16 -16 -36
-12 -114 22 -69 30 -72 33 -46 40 15 4 35 3 46 -3 14 -7 18 -6 18 6 0 8 9 15
19 15 20 0 61 35 101 88 17 23 44 39 87 55 66 23 158 33 168 17z m167 -127
c-3 -16 -7 -22 -10 -15 -4 13 4 42 11 42 2 0 2 -12 -1 -27z m-290 -85 c-7 -7
-12 -8 -12 -2 0 14 12 26 19 19 2 -3 -1 -11 -7 -17z m6 -110 c-82 -162 -177
-308 -200 -308 -5 0 3 18 17 40 14 22 43 77 65 122 22 45 47 90 56 99 9 10 13
22 10 27 -3 5 1 15 9 22 9 7 13 20 10 29 -2 9 -1 21 3 27 6 10 17 14 65 23 4
0 -12 -36 -35 -81z m-111 37 c-31 -30 -36 -78 -10 -107 15 -17 14 -24 -31
-112 -26 -52 -55 -101 -66 -111 -24 -21 -54 -13 -46 13 3 10 8 50 10 90 4 65
2 72 -14 72 -29 0 -33 17 -15 69 13 42 19 48 37 43 11 -3 23 -13 25 -23 4 -15
11 -17 32 -13 43 10 49 23 21 44 -21 17 -23 21 -10 30 13 9 13 10 0 11 -28 1
24 18 60 18 l35 1 -28 -25z m68 -181 c-10 -8 -16 -17 -13 -20 12 -11 47 7 53
27 7 22 25 16 25 -8 0 -8 18 -33 40 -55 39 -40 52 -80 29 -93 -6 -4 -38 -9
-72 -11 -34 -3 -68 -7 -75 -9 -8 -3 -4 7 7 21 31 40 27 66 -4 32 -14 -15 -38
-30 -53 -34 -15 -3 -33 -7 -39 -10 -19 -5 -16 1 21 53 18 27 43 67 56 90 13
23 28 39 33 36 6 -3 2 -12 -8 -19z m95 -285 l35 -1 -43 -11 c-37 -9 -46 -8
-60 8 -16 17 -16 17 8 11 14 -3 41 -6 60 -7z m-90 -73 c-7 -7 -10 4 -9 29 1
40 1 40 10 10 5 -18 5 -33 -1 -39z m88 -3 c-10 -2 -26 -2 -35 0 -10 3 -2 5 17
5 19 0 27 -2 18 -5z"/>
<path d="M372 658 c3 -7 15 -14 29 -16 24 -4 24 -3 4 12 -24 19 -38 20 -33 4z"/>
<path d="M670 910 c-9 -6 -10 -10 -3 -10 6 0 15 5 18 10 8 12 4 12 -15 0z"/>
<path d="M765 10 c-18 -8 -17 -9 8 -9 16 -1 26 3 22 9 -3 6 -7 10 -8 9 -1 0
-11 -4 -22 -9z"/>
</g>
</svg>
