<?xml version="1.0" encoding="UTF-8" standalone="no"?>
<!DOCTYPE svg PUBLIC "-//W3C//DTD SVG 1.1//EN" "http://www.w3.org/Graphics/SVG/1.1/DTD/svg11.dtd">
<svg xmlns="http://www.w3.org/2000/svg" xmlns:xl="http://www.w3.org/1999/xlink" version="1.1" viewBox="48 209 103 47" width="103pt" height="47pt" xmlns:dc="http://purl.org/dc/elements/1.1/"><metadata> Produced by OmniGraffle 6.5 <dc:date>2016-02-02 22:36:24 +0000</dc:date></metadata><defs/><g stroke="none" stroke-opacity="1" stroke-dasharray="none" fill="none" fill-opacity="1"><title>Canvas 1</title><g><title>Layer 1</title><rect x="61.083396" y="230.01125" width="2.5416792" height="2.5416792" fill="#f7efcd"/><rect x="65.36854" y="230.01125" width="2.5416792" height="2.5416792" fill="#f7efcd"/><rect x="65.36854" y="227.04596" width="2.5416792" height="2.5416792" fill="#f7efcd"/><rect x="65.36854" y="224.08067" width="2.5416792" height="2.5416792" fill="#f7efcd"/><rect x="65.36854" y="221.11538" width="2.5416792" height="2.5416792" fill="#f7efcd"/><rect x="69.700474" y="230.01125" width="2.5416792" height="2.5416792" fill="#f7efcd"/><rect x="69.700474" y="227.04596" width="2.5416792" height="2.5416792" fill="#f7efcd"/><rect x="74.03241" y="230.01125" width="2.5416792" height="2.5416792" fill="#f7efcd"/><rect x="74.03241" y="227.04596" width="2.5416792" height="2.5416792" fill="#f7efcd"/><rect x="74.03241" y="224.08067" width="2.5416792" height="2.5416792" fill="#f7efcd"/><rect x="74.03241" y="221.11538" width="2.5416792" height="2.5416792" fill="#f7efcd"/><rect x="74.03241" y="218.14588" width="2.5416792" height="2.5416792" fill="#f7efcd"/><rect x="78.364343" y="230.01125" width="2.5416792" height="2.5416792" fill="#f7efcd"/><rect x="78.364343" y="227.04596" width="2.5416792" height="2.5416792" fill="#f7efcd"/><rect x="78.364343" y="224.08067" width="2.5416792" height="2.5416792" fill="#f7efcd"/><rect x="82.696277" y="230.01125" width="2.5416792" height="2.5416792" fill="#f7efcd"/><rect x="82.696277" y="227.04596" width="2.5416792" height="2.5416792" fill="#f7efcd"/><rect x="87.02821" y="230.01125" width="2.5416792" height="2.5416792" fill="#f7efcd"/><rect x="87.02821" y="227.04596" width="2.5416792" height="2.5416792" fill="#f7efcd"/><rect x="87.02821" y="224.08067" width="2.5416792" height="2.5416792" fill="#f7efcd"/><rect x="87.02821" y="221.11538" width="2.5416792" height="2.5416792" fill="#f7efcd"/><rect x="87.02821" y="218.14588" width="2.5416792" height="2.5416792" fill="#f7efcd"/><rect x="91.360146" y="230.01125" width="2.5416792" height="2.5416792" fill="#f7efcd"/><rect x="91.360146" y="227.04596" width="2.5416792" height="2.5416792" fill="#f7efcd"/><rect x="91.360146" y="224.08067" width="2.5416792" height="2.5416792" fill="#f7efcd"/><rect x="91.360146" y="221.11538" width="2.5416792" height="2.5416792" fill="#f7efcd"/><rect x="95.69208" y="230.01125" width="2.5416792" height="2.5416792" fill="#f7efcd"/><rect x="95.69208" y="227.04596" width="2.5416792" height="2.5416792" fill="#f7efcd"/><rect x="95.69208" y="224.08067" width="2.5416792" height="2.5416792" fill="#f7efcd"/><rect x="95.69208" y="221.11538" width="2.5416792" height="2.5416792" fill="#f7efcd"/><rect x="95.69208" y="218.14588" width="2.5416792" height="2.5416792" fill="#f7efcd"/><rect x="95.69208" y="215.18058" width="2.5416792" height="2.5416792" fill="#f7efcd"/><rect x="95.69208" y="212.21529" width="2.5416792" height="2.5416792" fill="#f7efcd"/><rect x="95.69208" y="209.25" width="2.5416792" height="2.5416792" fill="#f7efcd"/><rect x="100.024014" y="230.01125" width="2.5416792" height="2.5416792" fill="#f7efcd"/><rect x="100.024014" y="227.04596" width="2.5416792" height="2.5416792" fill="#f7efcd"/><rect x="100.024014" y="224.08067" width="2.5416792" height="2.5416792" fill="#f7efcd"/><rect x="100.024014" y="221.11538" width="2.5416792" height="2.5416792" fill="#f7efcd"/><rect x="100.024014" y="218.14588" width="2.5416792" height="2.5416792" fill="#f7efcd"/><rect x="100.024014" y="215.18058" width="2.5416792" height="2.5416792" fill="#f7efcd"/><rect x="104.35595" y="230.01125" width="2.5416792" height="2.5416792" fill="#f7efcd"/><rect x="104.35595" y="227.04596" width="2.5416792" height="2.5416792" fill="#f7efcd"/><rect x="108.68788" y="230.01125" width="2.5416792" height="2.5416792" fill="#f7efcd"/><rect x="108.68788" y="227.04596" width="2.5416792" height="2.5416792" fill="#f7efcd"/><rect x="108.68788" y="224.08067" width="2.5416792" height="2.5416792" fill="#f7efcd"/><rect x="108.68788" y="221.11538" width="2.5416792" height="2.5416792" fill="#f7efcd"/><rect x="113.01982" y="230.01125" width="2.5416792" height="2.5416792" fill="#f7efcd"/><rect x="113.01982" y="227.04596" width="2.5416792" height="2.5416792" fill="#f7efcd"/><rect x="117.35175" y="230.01125" width="2.5416792" height="2.5416792" fill="#f7efcd"/><rect x="117.35175" y="227.04596" width="2.5416792" height="2.5416792" fill="#f7efcd"/><rect x="117.35175" y="224.08067" width="2.5416792" height="2.5416792" fill="#f7efcd"/><rect x="117.35175" y="221.11538" width="2.5416792" height="2.5416792" fill="#f7efcd"/><rect x="117.35175" y="218.14588" width="2.5416792" height="2.5416792" fill="#f7efcd"/><rect x="121.683686" y="230.01125" width="2.5416792" height="2.5416792" fill="#f7efcd"/><rect x="126.01562" y="230.01125" width="2.5416792" height="2.5416792" fill="#f7efcd"/><rect x="126.01562" y="227.04596" width="2.5416792" height="2.5416792" fill="#f7efcd"/><rect x="126.01562" y="224.08067" width="2.5416792" height="2.5416792" fill="#f7efcd"/><rect x="130.347555" y="230.01125" width="2.5416792" height="2.5416792" fill="#f7efcd"/><rect x="130.347555" y="227.04596" width="2.5416792" height="2.5416792" fill="#f7efcd"/><rect x="139.01142" y="230.01125" width="2.5416792" height="2.5416792" fill="#f7efcd"/><rect x="139.01142" y="227.04596" width="2.5416792" height="2.5416792" fill="#f7efcd"/><rect x="61.081174" y="235.59986" width="2.5416792" height="2.5416792" fill="#f7efcd" fill-opacity=".33"/><rect x="65.36632" y="238.56515" width="2.5416792" height="2.5416792" fill="#f7efcd" fill-opacity=".33"/><rect x="65.36632" y="235.59986" width="2.5416792" height="2.5416792" fill="#f7efcd" fill-opacity=".33"/><rect x="69.698253" y="244.49574" width="2.5416792" height="2.5416792" fill="#f7efcd" fill-opacity=".33"/><rect x="69.698253" y="241.53044" width="2.5416792" height="2.5416792" fill="#f7efcd" fill-opacity=".33"/><rect x="69.698253" y="238.56515" width="2.5416792" height="2.5416792" fill="#f7efcd" fill-opacity=".33"/><rect x="69.698253" y="235.59986" width="2.5416792" height="2.5416792" fill="#f7efcd" fill-opacity=".33"/><rect x="74.030187" y="253.39582" width="2.5416792" height="2.5416792" fill="#f7efcd" fill-opacity=".33"/><rect x="74.030187" y="250.43053" width="2.5416792" height="2.5416792" fill="#f7efcd" fill-opacity=".33"/><rect x="74.030187" y="247.46524" width="2.5416792" height="2.5416792" fill="#f7efcd" fill-opacity=".33"/><rect x="74.030187" y="244.49574" width="2.5416792" height="2.5416792" fill="#f7efcd" fill-opacity=".33"/><rect x="74.030187" y="241.53044" width="2.5416792" height="2.5416792" fill="#f7efcd" fill-opacity=".33"/><rect x="74.030187" y="238.56515" width="2.5416792" height="2.5416792" fill="#f7efcd" fill-opacity=".33"/><rect x="74.030187" y="235.59986" width="2.5416792" height="2.5416792" fill="#f7efcd" fill-opacity=".33"/><rect x="78.36212" y="244.49574" width="2.5416792" height="2.5416792" fill="#f7efcd" fill-opacity=".33"/><rect x="78.36212" y="241.53044" width="2.5416792" height="2.5416792" fill="#f7efcd" fill-opacity=".33"/><rect x="78.36212" y="238.56515" width="2.5416792" height="2.5416792" fill="#f7efcd" fill-opacity=".33"/><rect x="78.36212" y="235.59986" width="2.5416792" height="2.5416792" fill="#f7efcd" fill-opacity=".33"/><rect x="82.694056" y="241.53044" width="2.5416792" height="2.5416792" fill="#f7efcd" fill-opacity=".33"/><rect x="82.694056" y="238.56515" width="2.5416792" height="2.5416792" fill="#f7efcd" fill-opacity=".33"/><rect x="82.694056" y="235.59986" width="2.5416792" height="2.5416792" fill="#f7efcd" fill-opacity=".33"/><rect x="87.02599" y="247.46524" width="2.5416792" height="2.5416792" fill="#f7efcd" fill-opacity=".33"/><rect x="87.02599" y="244.49574" width="2.5416792" height="2.5416792" fill="#f7efcd" fill-opacity=".33"/><rect x="87.02599" y="241.53044" width="2.5416792" height="2.5416792" fill="#f7efcd" fill-opacity=".33"/><rect x="87.02599" y="238.56515" width="2.5416792" height="2.5416792" fill="#f7efcd" fill-opacity=".33"/><rect x="87.02599" y="235.59986" width="2.5416792" height="2.5416792" fill="#f7efcd" fill-opacity=".33"/><rect x="91.357924" y="238.56515" width="2.5416792" height="2.5416792" fill="#f7efcd" fill-opacity=".33"/><rect x="91.357924" y="235.59986" width="2.5416792" height="2.5416792" fill="#f7efcd" fill-opacity=".33"/><rect x="95.68986" y="250.43053" width="2.5416792" height="2.5416792" fill="#f7efcd" fill-opacity=".33"/><rect x="95.68986" y="247.46524" width="2.5416792" height="2.5416792" fill="#f7efcd" fill-opacity=".33"/><rect x="95.68986" y="244.49574" width="2.5416792" height="2.5416792" fill="#f7efcd" fill-opacity=".33"/><rect x="95.68986" y="241.53044" width="2.5416792" height="2.5416792" fill="#f7efcd" fill-opacity=".33"/><rect x="95.68986" y="238.56515" width="2.5416792" height="2.5416792" fill="#f7efcd" fill-opacity=".33"/><rect x="95.68986" y="235.59986" width="2.5416792" height="2.5416792" fill="#f7efcd" fill-opacity=".33"/><rect x="100.02179" y="247.46524" width="2.5416792" height="2.5416792" fill="#f7efcd" fill-opacity=".33"/><rect x="100.02179" y="244.49574" width="2.5416792" height="2.5416792" fill="#f7efcd" fill-opacity=".33"/><rect x="100.02179" y="241.53044" width="2.5416792" height="2.5416792" fill="#f7efcd" fill-opacity=".33"/><rect x="100.02179" y="238.56515" width="2.5416792" height="2.5416792" fill="#f7efcd" fill-opacity=".33"/><rect x="100.02179" y="235.59986" width="2.5416792" height="2.5416792" fill="#f7efcd" fill-opacity=".33"/><rect x="104.35373" y="244.49574" width="2.5416792" height="2.5416792" fill="#f7efcd" fill-opacity=".33"/><rect x="104.35373" y="241.53044" width="2.5416792" height="2.5416792" fill="#f7efcd" fill-opacity=".33"/><rect x="104.35373" y="238.56515" width="2.5416792" height="2.5416792" fill="#f7efcd" fill-opacity=".33"/><rect x="104.35373" y="235.59986" width="2.5416792" height="2.5416792" fill="#f7efcd" fill-opacity=".33"/><rect x="108.68566" y="253.39582" width="2.5416792" height="2.5416792" fill="#f7efcd" fill-opacity=".33"/><rect x="108.68566" y="250.43053" width="2.5416792" height="2.5416792" fill="#f7efcd" fill-opacity=".33"/><rect x="108.68566" y="247.46524" width="2.5416792" height="2.5416792" fill="#f7efcd" fill-opacity=".33"/><rect x="108.68566" y="244.49574" width="2.5416792" height="2.5416792" fill="#f7efcd" fill-opacity=".33"/><rect x="108.68566" y="241.53044" width="2.5416792" height="2.5416792" fill="#f7efcd" fill-opacity=".33"/><rect x="108.68566" y="238.56515" width="2.5416792" height="2.5416792" fill="#f7efcd" fill-opacity=".33"/><rect x="108.68566" y="235.59986" width="2.5416792" height="2.5416792" fill="#f7efcd" fill-opacity=".33"/><rect x="113.017596" y="238.56515" width="2.5416792" height="2.5416792" fill="#f7efcd" fill-opacity=".33"/><rect x="113.017596" y="235.59986" width="2.5416792" height="2.5416792" fill="#f7efcd" fill-opacity=".33"/><rect x="117.34953" y="247.46524" width="2.5416792" height="2.5416792" fill="#f7efcd" fill-opacity=".33"/><rect x="117.34953" y="244.49574" width="2.5416792" height="2.5416792" fill="#f7efcd" fill-opacity=".33"/><rect x="117.34953" y="241.53044" width="2.5416792" height="2.5416792" fill="#f7efcd" fill-opacity=".33"/><rect x="117.34953" y="238.56515" width="2.5416792" height="2.5416792" fill="#f7efcd" fill-opacity=".33"/><rect x="117.34953" y="235.59986" width="2.5416792" height="2.5416792" fill="#f7efcd" fill-opacity=".33"/><rect x="121.681465" y="241.53044" width="2.5416792" height="2.5416792" fill="#f7efcd" fill-opacity=".33"/><rect x="121.681465" y="238.56515" width="2.5416792" height="2.5416792" fill="#f7efcd" fill-opacity=".33"/><rect x="121.681465" y="235.59986" width="2.5416792" height="2.5416792" fill="#f7efcd" fill-opacity=".33"/><rect x="126.0134" y="238.56515" width="2.5416792" height="2.5416792" fill="#f7efcd" fill-opacity=".33"/><rect x="126.0134" y="235.59986" width="2.5416792" height="2.5416792" fill="#f7efcd" fill-opacity=".33"/><rect x="130.34533" y="241.53044" width="2.5416792" height="2.5416792" fill="#f7efcd" fill-opacity=".33"/><rect x="130.34533" y="238.56515" width="2.5416792" height="2.5416792" fill="#f7efcd" fill-opacity=".33"/><rect x="130.34533" y="235.59986" width="2.5416792" height="2.5416792" fill="#f7efcd" fill-opacity=".33"/><rect x="134.67727" y="238.56515" width="2.5416792" height="2.5416792" fill="#f7efcd" fill-opacity=".33"/><rect x="134.67727" y="235.59986" width="2.5416792" height="2.5416792" fill="#f7efcd" fill-opacity=".33"/><rect x="139.0092" y="235.59986" width="2.5416792" height="2.5416792" fill="#f7efcd" fill-opacity=".33"/><rect x="143.264355" y="230.00705" width="2.5416792" height="2.5416792" fill="#f7efcd"/><rect x="147.59629" y="230.00705" width="2.5416792" height="2.5416792" fill="#f7efcd"/><rect x="143.264355" y="241.4446" width="2.5416792" height="2.5416792" fill="#f7efcd" fill-opacity=".33"/><rect x="143.264355" y="238.47931" width="2.5416792" height="2.5416792" fill="#f7efcd" fill-opacity=".33"/><rect x="143.264355" y="235.51402" width="2.5416792" height="2.5416792" fill="#f7efcd" fill-opacity=".33"/><rect x="48.375" y="230.00705" width="2.5416792" height="2.5416792" fill="#f7efcd"/><rect x="52.660144" y="230.00705" width="2.5416792" height="2.5416792" fill="#f7efcd"/><rect x="52.660144" y="227.04175" width="2.5416792" height="2.5416792" fill="#f7efcd"/><rect x="52.660144" y="224.07646" width="2.5416792" height="2.5416792" fill="#f7efcd"/><rect x="52.660144" y="221.11117" width="2.5416792" height="2.5416792" fill="#f7efcd"/><rect x="56.992078" y="230.00705" width="2.5416792" height="2.5416792" fill="#f7efcd"/><rect x="56.992078" y="227.04175" width="2.5416792" height="2.5416792" fill="#f7efcd"/><rect x="48.470802" y="235.51402" width="2.5416792" height="2.5416792" fill="#f7efcd" fill-opacity=".33"/><rect x="52.802737" y="238.47931" width="2.5416792" height="2.5416792" fill="#f7efcd" fill-opacity=".33"/><rect x="52.802737" y="235.51402" width="2.5416792" height="2.5416792" fill="#f7efcd" fill-opacity=".33"/><rect x="57.13467" y="241.4446" width="2.5416792" height="2.5416792" fill="#f7efcd" fill-opacity=".33"/><rect x="57.13467" y="238.47931" width="2.5416792" height="2.5416792" fill="#f7efcd" fill-opacity=".33"/><rect x="57.13467" y="235.51402" width="2.5416792" height="2.5416792" fill="#f7efcd" fill-opacity=".33"/><rect x="134.70089" y="230.0625" width="2.5416792" height="2.5416792" fill="#f7efcd"/></g></g></svg>
